<?xml version="1.0" standalone="no"?>
<!DOCTYPE svg PUBLIC "-//W3C//DTD SVG 20010904//EN"
 "http://www.w3.org/TR/2001/REC-SVG-20010904/DTD/svg10.dtd">
<svg version="1.0" xmlns="http://www.w3.org/2000/svg"
 width="900.000000pt" height="117.000000pt" viewBox="0 0 900.000000 117.000000"
 preserveAspectRatio="xMidYMid meet">
<metadata>
Created by potrace 1.10, written by Peter Selinger 2001-2011
</metadata>
<g transform="translate(0.000000,117.000000) scale(0.100000,-0.100000)"
fill="#000000" stroke="none">
<path d="M138 1119 c-21 -5 -56 -21 -78 -35 -39 -26 -40 -28 -40 -85 0 -34 7
-76 17 -99 l18 -41 55 3 55 3 3 58 c3 51 1 57 -16 57 -11 0 -25 -7 -32 -15
-15 -18 -36 -19 -43 -2 -2 6 -1 32 2 57 7 49 7 49 81 29 67 -18 73 -25 66 -81
-11 -78 25 -113 53 -52 30 67 4 170 -51 200 -26 15 -38 15 -90 3z"/>
<path d="M1080 1119 c-19 -5 -188 -9 -375 -8 -187 0 -345 0 -351 -1 -9 0 -12
-56 -13 -195 0 -108 -3 -206 -7 -219 -10 -40 14 -48 95 -31 40 8 90 15 112 15
31 0 45 6 62 26 l23 26 34 -20 c30 -19 37 -19 65 -8 27 12 34 11 54 -5 22 -18
91 -42 99 -34 11 11 -13 46 -36 51 -15 4 -33 11 -39 17 -7 5 -21 7 -32 4 -13
-3 -22 3 -30 20 -8 17 -17 23 -29 19 -13 -4 -23 1 -32 19 -7 14 -11 27 -9 29
2 2 35 18 72 35 57 26 81 31 140 31 67 0 75 -2 105 -30 18 -16 45 -33 60 -37
15 -3 42 -15 60 -25 18 -10 37 -18 43 -18 6 0 8 63 7 173 -3 193 0 186 -78
166z m-340 -129 c0 -5 -7 -10 -15 -10 -8 0 -15 5 -15 10 0 6 7 10 15 10 8 0
15 -4 15 -10z m-71 -14 c12 -14 -18 -59 -84 -123 -31 -30 -41 -34 -78 -31
l-42 3 -9 59 c-8 57 -8 60 18 83 23 20 38 23 105 23 54 0 82 -4 90 -14z"/>
<path d="M1846 1055 c-11 -8 -33 -15 -48 -15 -46 0 -148 -56 -206 -113 -89
-87 -148 -234 -145 -367 2 -89 14 -183 27 -209 9 -16 16 -36 16 -44 0 -8 7
-20 15 -27 8 -7 15 -19 15 -28 0 -18 125 -142 144 -142 8 0 19 -7 26 -15 7 -8
22 -15 34 -15 12 0 30 -6 41 -14 11 -7 43 -17 70 -21 96 -16 342 -6 370 15 6
4 26 10 45 14 40 7 144 57 177 85 20 17 21 27 25 239 1 122 0 223 -4 225 -4 1
-114 1 -243 -1 l-236 -3 3 -102 3 -102 75 0 75 0 -1 -39 c-2 -60 -40 -86 -122
-86 -39 0 -75 6 -95 17 -38 19 -87 72 -87 94 0 9 -7 30 -16 48 -12 24 -13 35
-4 46 8 10 8 19 1 34 -15 28 -14 64 4 87 8 10 15 31 15 46 0 39 48 104 92 124
26 12 52 15 85 11 41 -4 53 -11 83 -46 39 -44 51 -49 70 -26 7 8 19 15 27 15
8 0 29 6 46 14 18 8 57 22 87 31 97 31 110 37 110 52 0 17 -35 67 -75 105 -39
38 -167 98 -208 98 -18 1 -43 7 -57 15 -35 20 -208 20 -234 0z m8 -153 c3 -5
-26 -44 -64 -87 -65 -74 -69 -82 -90 -169 -17 -69 -21 -107 -16 -157 7 -79 23
-129 42 -129 7 0 18 -17 24 -39 7 -25 27 -54 60 -85 28 -26 50 -49 50 -53 0
-9 -83 7 -98 20 -8 6 -25 10 -38 9 -17 -2 -24 2 -24 13 0 8 -11 20 -25 25 -15
6 -25 17 -25 29 0 11 -17 50 -39 88 -35 62 -39 76 -43 157 -4 80 -2 96 23 156
15 37 34 80 42 97 14 27 93 94 142 121 24 13 72 15 79 4z m429 -413 c36 -16
47 -50 46 -137 -1 -95 -4 -104 -54 -137 -47 -33 -155 -48 -155 -23 0 8 10 23
22 34 11 10 34 39 50 63 34 54 37 105 7 155 -19 33 -19 35 -2 45 24 14 56 14
86 0z m-243 -328 c0 -5 -7 -11 -15 -15 -9 -3 -15 0 -15 9 0 8 7 15 15 15 8 0
15 -4 15 -9z"/>
<path d="M2811 1036 c-7 -8 -10 -20 -6 -26 4 -6 0 -19 -8 -28 -8 -9 -17 -30
-20 -47 -5 -29 -48 -161 -72 -220 -20 -47 -37 -98 -42 -125 -3 -14 -9 -30 -14
-35 -4 -6 -11 -30 -15 -53 -3 -23 -13 -47 -20 -53 -8 -6 -14 -22 -14 -35 0
-13 -6 -38 -14 -56 -8 -18 -22 -60 -31 -93 -10 -33 -21 -67 -26 -75 -5 -8 -11
-19 -13 -25 -1 -5 -9 -26 -16 -45 -25 -71 -23 -74 50 -69 36 2 122 3 191 2
142 -3 138 -5 139 77 1 65 12 70 148 70 138 0 142 -2 142 -82 0 -24 4 -48 8
-54 5 -7 118 -10 359 -10 306 1 352 3 356 16 2 8 -1 71 -5 140 -9 134 -7 150
17 150 13 0 27 -21 49 -80 4 -8 15 -28 26 -45 11 -16 24 -40 29 -52 5 -11 15
-24 20 -28 6 -3 11 -14 11 -23 1 -9 11 -30 25 -46 l23 -29 192 -3 192 -2 -7
26 c-4 15 -10 29 -14 32 -10 7 -63 90 -77 120 -4 8 -19 31 -33 50 -14 19 -31
44 -38 55 -7 11 -24 39 -38 63 -29 47 -27 72 5 72 23 0 86 38 112 66 33 39 48
95 48 185 0 155 -43 242 -148 297 -41 21 -53 22 -388 23 -190 1 -346 0 -348
-2 -1 -2 1 -213 6 -469 4 -256 5 -471 3 -479 -8 -20 -55 26 -55 53 0 12 -7 34
-15 50 -8 15 -15 35 -15 43 0 16 -28 107 -41 134 -4 9 -11 34 -14 55 -4 22
-13 49 -21 61 -8 12 -14 35 -14 51 0 15 -7 37 -15 48 -8 10 -15 29 -15 41 0
12 -4 24 -9 27 -5 4 -12 25 -16 49 -4 23 -13 53 -20 67 -19 37 -75 222 -75
248 0 22 0 22 -182 22 -101 0 -192 3 -204 6 -12 3 -26 -1 -33 -10z m306 -143
c35 -39 67 -115 83 -198 7 -39 20 -86 30 -105 9 -19 25 -62 35 -95 10 -33 25
-68 33 -77 8 -10 11 -25 7 -37 -5 -17 -3 -20 11 -14 14 5 16 3 11 -12 -4 -9
-2 -24 5 -32 15 -19 22 -120 8 -128 -21 -13 -68 7 -128 55 -33 28 -67 50 -75
50 -8 0 -21 7 -28 16 -11 13 -10 18 9 32 12 10 27 32 33 50 6 17 17 32 25 32
24 0 19 121 -7 154 -11 14 -18 30 -14 35 8 14 -26 81 -42 81 -7 0 -19 13 -28
30 -31 60 -84 62 -122 3 -10 -15 -23 -32 -30 -38 -31 -25 -62 -107 -69 -177
-6 -66 -4 -75 15 -92 11 -11 21 -25 21 -32 0 -7 6 -19 13 -26 8 -7 17 -25 20
-39 6 -23 2 -28 -36 -44 -23 -10 -51 -27 -62 -37 -50 -45 -82 -63 -114 -63
-48 0 -59 22 -42 82 8 26 15 59 16 73 0 14 10 39 21 56 11 18 46 112 78 210
73 227 84 253 119 287 26 24 36 27 104 27 68 0 76 -2 100 -27z m760 16 c15
-15 6 -37 -32 -79 -40 -43 -51 -64 -60 -116 -10 -63 10 -118 66 -182 27 -31
54 -63 60 -69 26 -33 104 -3 187 72 40 36 52 54 52 76 0 21 4 27 15 23 12 -5
15 3 15 43 0 44 -5 55 -41 94 -22 24 -44 53 -50 64 -5 11 -14 27 -21 36 -22
32 -3 49 55 49 86 0 130 -27 166 -103 27 -56 29 -67 20 -107 -6 -25 -22 -63
-36 -85 -15 -22 -26 -48 -26 -57 1 -9 -7 -20 -18 -23 -27 -9 -79 -88 -79 -121
0 -15 11 -50 24 -78 65 -140 68 -156 23 -156 -32 0 -67 29 -122 100 -25 32
-58 64 -75 72 -16 7 -30 18 -30 25 0 6 -21 15 -46 19 -69 10 -87 -11 -160
-183 -11 -27 -19 -33 -43 -33 -20 0 -34 7 -41 20 -7 12 -9 132 -8 346 l3 327
35 18 c39 21 149 26 167 8z m126 -120 c52 -27 67 -50 67 -103 0 -41 -5 -57
-26 -79 -23 -26 -31 -28 -87 -25 l-62 3 -3 94 c-2 80 0 95 15 107 22 16 67 18
96 3z m-945 -149 c2 -41 7 -79 12 -84 6 -6 10 -21 10 -35 0 -13 5 -40 12 -58
16 -44 5 -53 -70 -57 -50 -2 -63 0 -67 14 -6 19 10 112 25 140 5 10 10 47 10
83 0 35 3 67 7 71 4 4 19 6 33 4 24 -3 25 -6 28 -78z"/>
<path d="M4550 1036 c-5 -173 3 -982 9 -986 5 -3 143 -2 308 1 296 6 406 18
435 46 6 7 19 13 27 14 54 1 210 162 211 216 0 12 4 23 9 25 16 5 17 228 1
228 -5 0 -10 -16 -10 -35 0 -34 -38 -102 -66 -118 -8 -4 -14 -13 -14 -19 0 -7
-18 -33 -40 -59 -22 -26 -40 -54 -40 -62 0 -20 -36 -50 -50 -42 -7 4 -34 -5
-61 -20 -73 -39 -177 -54 -381 -55 -165 0 -179 1 -198 20 -19 19 -20 33 -20
355 0 404 -10 375 133 374 132 0 171 -9 175 -37 3 -17 -2 -25 -17 -29 -11 -3
-23 -14 -26 -24 -4 -11 -22 -26 -40 -33 -56 -24 -65 -55 -65 -223 0 -82 4
-163 9 -180 10 -33 90 -121 130 -142 30 -16 92 -6 156 26 57 28 154 128 155
159 0 11 5 25 11 31 23 23 25 104 4 166 -8 23 -15 49 -15 59 0 9 -27 44 -60
77 -46 47 -67 61 -89 61 -31 0 -57 22 -46 40 3 6 -3 10 -17 10 -31 0 -68 11
-68 19 0 4 55 8 122 10 l121 2 46 -32 c74 -52 114 -90 142 -132 15 -21 42 -56
61 -76 19 -20 37 -44 41 -54 13 -36 27 -5 27 62 0 56 -5 79 -31 129 -33 68
-119 153 -178 178 -125 53 -127 53 -473 57 -226 2 -328 0 -328 -7z m444 -275
c3 -4 28 -11 56 -14 91 -11 150 -81 150 -180 0 -32 -6 -72 -14 -90 -17 -39
-78 -97 -103 -97 -10 0 -27 -7 -37 -15 -11 -8 -39 -15 -63 -15 -34 0 -43 4
-43 18 -1 44 -1 369 0 385 0 18 44 25 54 8z"/>
<path d="M5937 1042 l-338 -2 6 -108 c3 -59 11 -144 17 -190 5 -45 7 -98 4
-116 -5 -23 -2 -37 9 -46 12 -10 16 -9 21 6 4 11 17 44 29 74 12 30 28 91 35
134 18 110 28 118 138 114 86 -3 87 -3 84 -28 -1 -14 -3 -32 -3 -40 -1 -8 -15
-24 -32 -35 -34 -22 -53 -69 -43 -108 3 -14 28 -52 56 -84 27 -32 50 -65 50
-74 0 -9 -12 -30 -27 -47 -43 -46 -72 -88 -78 -115 -9 -34 16 -88 65 -141 39
-42 40 -45 21 -55 -11 -6 -58 -11 -104 -11 -105 0 -110 5 -127 129 -12 94 -58
221 -80 221 -5 0 -10 -20 -10 -44 0 -25 -4 -78 -9 -118 -5 -40 -13 -126 -16
-191 l-6 -117 350 0 350 0 0 126 c-1 98 -4 126 -15 131 -8 3 -76 1 -151 -4
-78 -5 -146 -6 -155 -1 -14 7 -18 21 -18 59 0 65 10 68 165 58 66 -4 125 -3
130 1 13 11 10 230 -3 239 -6 3 -68 3 -139 -1 -70 -5 -134 -6 -140 -3 -19 7
-17 109 2 125 12 10 46 11 158 3 84 -5 147 -6 154 0 17 12 17 254 0 259 -7 1
-164 2 -350 0z"/>
<path d="M6414 1042 c-8 -5 -11 -146 -11 -482 0 -261 -2 -482 -4 -490 -3 -13
23 -15 183 -18 l186 -2 -4 142 c-3 79 -10 176 -16 216 -6 43 -7 76 -2 81 19
18 54 -9 77 -61 14 -29 41 -77 61 -107 20 -29 36 -59 36 -66 0 -7 7 -18 15
-25 8 -7 15 -16 15 -21 0 -5 14 -28 30 -51 17 -22 30 -46 30 -52 1 -6 9 -21
20 -34 18 -22 22 -22 205 -20 l186 3 0 489 c0 268 -2 490 -4 492 -3 4 -301 7
-364 4 -14 0 -8 -243 8 -349 8 -50 7 -66 -3 -72 -26 -17 -48 -9 -55 18 -6 27
-102 192 -128 223 -7 8 -21 31 -32 50 -10 19 -32 56 -48 83 l-30 47 -157 0
c-86 0 -162 2 -170 5 -7 3 -18 1 -24 -3z m274 -147 c15 -8 36 -26 47 -41 11
-14 37 -44 58 -67 20 -23 37 -48 37 -56 0 -21 43 -81 58 -81 7 0 15 -7 18 -15
3 -8 13 -17 23 -20 9 -2 21 -15 26 -27 6 -12 22 -29 37 -37 24 -14 30 -14 61
1 71 34 116 134 117 259 0 74 56 114 102 72 17 -15 18 -39 18 -345 0 -320 0
-328 -21 -349 -18 -18 -30 -21 -81 -17 -58 4 -62 7 -111 59 -28 30 -51 62 -52
72 -3 34 -128 197 -151 197 -9 0 -31 12 -49 26 -32 24 -37 25 -70 13 -37 -14
-77 -58 -94 -102 -6 -14 -15 -72 -21 -129 -12 -111 -23 -131 -70 -126 -46 6
-50 29 -50 361 l0 309 29 29 c34 33 93 40 139 14z"/>
<path d="M7554 1038 c-6 -9 -6 -979 0 -985 2 -2 172 -4 377 -3 281 0 375 4
381 13 4 7 8 31 8 53 0 23 6 47 14 53 9 8 55 11 137 9 l124 -3 3 -25 c1 -14 7
-42 13 -62 l10 -38 169 0 c93 0 171 4 174 8 3 5 -3 26 -13 48 -41 88 -51 116
-51 143 0 16 -6 34 -14 40 -7 6 -16 31 -19 56 -4 24 -11 53 -16 62 -14 24 -41
110 -41 128 0 7 -6 26 -14 42 -8 15 -22 55 -31 88 -9 33 -21 68 -26 77 -5 9
-12 35 -15 57 -4 23 -13 46 -20 52 -8 6 -14 23 -14 38 0 26 -27 113 -43 139
-6 9 -57 12 -196 12 -203 0 -204 0 -214 -55 -6 -35 -64 -212 -78 -237 -5 -10
-9 -26 -9 -35 0 -10 -7 -27 -15 -37 -8 -11 -15 -34 -15 -52 0 -18 -4 -36 -10
-39 -5 -3 -14 -25 -20 -48 -6 -23 -15 -51 -19 -62 -5 -11 -16 -47 -26 -80 -10
-33 -24 -75 -31 -93 -8 -18 -14 -46 -14 -62 0 -16 -4 -31 -9 -34 -5 -4 -12
-24 -16 -45 -7 -42 -42 -88 -56 -74 -5 5 -5 218 0 473 4 256 4 469 1 473 -9
10 -360 15 -366 5z m996 -156 c16 -16 33 -49 39 -73 26 -105 36 -136 50 -159
5 -8 13 -33 19 -55 15 -58 110 -337 122 -357 17 -29 12 -36 -29 -43 -33 -5
-45 -2 -87 27 -27 18 -51 37 -53 41 -2 5 -14 12 -27 17 -29 11 -32 45 -6 80
28 41 45 92 44 135 -3 106 -6 124 -18 129 -7 3 -20 20 -27 39 -19 45 -99 111
-126 102 -27 -8 -104 -101 -129 -155 -11 -25 -23 -74 -26 -110 -7 -71 -5 -77
62 -159 l34 -41 -27 -10 c-14 -5 -30 -10 -34 -10 -4 0 -28 -20 -52 -44 -30
-31 -58 -49 -91 -57 -87 -24 -96 16 -37 171 16 41 29 85 29 97 0 13 5 23 10
23 6 0 10 8 10 18 0 10 8 36 19 58 10 21 31 81 45 133 15 52 36 111 47 132 10
21 19 44 19 51 0 27 53 47 123 48 62 0 71 -3 97 -28z m-766 0 c15 -17 16 -53
14 -357 l-3 -338 -28 -10 c-37 -12 -74 -2 -88 25 -9 16 -11 113 -10 342 2 278
4 323 18 338 21 24 75 23 97 0z m707 -242 c8 -91 23 -158 38 -173 18 -18 14
-67 -6 -67 -10 -1 -42 -2 -71 -3 -69 -3 -80 9 -58 66 9 24 21 73 26 108 9 64
18 113 26 137 2 8 12 12 21 10 15 -3 19 -18 24 -78z"/>
<path d="M26 834 c-11 -28 -6 -51 14 -77 25 -32 26 -67 1 -98 -15 -20 -18 -39
-17 -95 2 -78 9 -94 36 -94 34 0 32 -19 -4 -54 -23 -21 -36 -43 -36 -59 0 -37
15 -42 54 -18 42 26 58 26 81 1 26 -28 85 -27 113 3 19 20 21 33 19 112 l-2
90 -97 -3 c-93 -3 -138 6 -138 28 0 13 77 45 128 54 24 3 51 10 60 15 9 5 25
12 35 15 15 5 18 15 15 53 -3 46 -5 49 -48 70 -25 12 -57 22 -73 22 -15 1 -50
12 -79 26 -61 30 -54 29 -62 9z m148 -113 c24 -26 13 -41 -30 -41 -29 0 -34 3
-34 23 0 13 3 27 7 30 12 13 40 7 57 -12z m54 -283 c-3 -29 -6 -33 -33 -33
-27 0 -30 4 -33 33 -3 31 -2 32 33 32 35 0 36 -1 33 -32z"/>
<path d="M925 700 c-7 -12 2 -30 16 -30 5 0 9 9 9 20 0 21 -15 27 -25 10z"/>
<path d="M803 558 c-4 -7 -6 -21 -5 -30 2 -9 -6 -22 -17 -28 -12 -6 -21 -20
-21 -31 0 -21 36 -58 57 -59 6 0 19 -7 28 -16 19 -19 6 -41 -28 -46 -12 -2
-20 -7 -17 -13 7 -13 355 -14 355 0 0 5 -13 12 -30 15 -38 7 -39 24 -2 28 35
4 55 38 34 59 -13 14 -16 13 -26 -6 -16 -30 -36 -26 -63 12 -27 39 -58 66 -75
67 -18 0 -16 -55 2 -70 22 -18 18 -43 -10 -70 -21 -20 -30 -22 -53 -14 -31 11
-61 64 -62 108 0 17 -12 47 -26 68 -30 43 -30 43 -41 26z"/>
<path d="M352 548 c-8 -8 -12 -48 -12 -113 l0 -102 157 -7 c90 -4 160 -3 166
3 7 7 4 18 -20 60 -2 2 -10 -2 -19 -9 -12 -11 -20 -11 -34 -3 -10 7 -27 9 -39
6 -15 -4 -21 -1 -21 10 0 30 -20 28 -26 -3 -9 -44 -21 -46 -41 -5 -17 36 -17
37 2 51 11 7 26 18 33 25 18 15 39 5 60 -31 19 -30 19 -30 37 -10 10 11 31 20
46 20 39 0 43 13 13 41 -20 19 -27 21 -34 9 -12 -20 -85 4 -125 42 -25 23 -40
28 -81 28 -27 0 -55 -5 -62 -12z"/>
<path d="M567 554 c-9 -10 2 -24 18 -24 9 0 12 6 9 15 -6 16 -17 19 -27 9z"/>
<path d="M705 268 c-2 -13 -4 -39 -2 -58 2 -31 -1 -35 -23 -35 -20 0 -31 11
-53 53 -25 46 -32 52 -61 52 -17 0 -37 -5 -44 -12 -9 -9 -20 -9 -49 0 -21 7
-65 11 -98 9 -56 -2 -60 -4 -63 -27 -8 -77 -34 -96 -54 -40 -15 45 -71 70
-156 70 l-69 0 -6 -121 c-4 -67 -4 -125 -1 -130 3 -5 44 -9 92 -9 80 0 90 2
115 25 15 14 27 35 27 46 0 20 25 37 38 24 4 -4 7 -25 7 -48 l0 -42 143 -2
142 -2 0 54 c0 30 3 56 8 58 12 8 46 -26 67 -68 18 -36 24 -40 60 -43 55 -3
69 7 55 42 -13 36 -13 115 1 155 9 27 8 35 -6 51 -25 28 -63 26 -70 -2z m-191
-63 c3 -13 3 -49 0 -79 l-7 -55 -59 3 c-33 2 -62 6 -65 9 -13 14 9 36 42 43
47 9 44 37 -4 44 -71 10 -39 60 39 60 43 0 49 -3 54 -25z m-332 -12 c24 -21
23 -47 -4 -83 -27 -36 -63 -40 -72 -7 -8 29 -8 71 0 91 8 21 52 20 76 -1z"/>
<path d="M834 269 c-3 -6 -7 -64 -7 -128 l0 -116 95 -2 c75 -2 98 0 108 12 16
19 64 19 79 1 15 -18 81 -30 94 -17 6 6 3 25 -12 56 -12 26 -24 61 -27 78 -3
18 -9 41 -14 52 -32 82 -26 76 -77 73 -44 -3 -49 -6 -65 -38 -9 -19 -20 -51
-23 -70 -3 -19 -13 -47 -21 -62 -8 -14 -14 -34 -14 -43 0 -11 -7 -15 -22 -13
-22 3 -23 7 -24 103 -1 55 -2 106 -3 113 -1 15 -57 16 -67 1z m261 -134 c0
-25 -4 -30 -25 -30 -16 0 -26 6 -28 18 -6 30 6 49 30 45 18 -2 23 -9 23 -33z"/>
</g>
</svg>
